<?xml version="1.0" encoding="utf-8"?>
<!-- Generator: Adobe Illustrator 26.0.3, SVG Export Plug-In . SVG Version: 6.00 Build 0)  -->
<svg version="1.1" xmlns="http://www.w3.org/2000/svg" xmlns:xlink="http://www.w3.org/1999/xlink" x="0px" y="0px"
	 viewBox="0 0 601.67 164.67" style="enable-background:new 0 0 601.67 164.67;" xml:space="preserve">
<style type="text/css">
	.st0{fill:#1D1934;}
	.st1{fill:#0082CA;}
	.st2{fill:#FFFFFF;}
	
		.st3{clip-path:url(#SVGID_00000147941802332901664850000004290854022852502699_);fill:url(#SVGID_00000159470891013915327100000008949100616803738542_);}
</style>
<g id="Fondos">
</g>
<g id="Logos">
</g>
<g id="VB">
</g>
<g id="V">
</g>
<g id="V-E">
</g>
<g id="Isotipo__x2B__Texto">
</g>
<g id="Isotipo">
</g>
<g id="HB">
</g>
<g id="H">
</g>
<g id="H-E">
	<g>
		<g>
			<path class="st2" d="M89.16,18.03L69.7,37.48c-0.98,0.98-2.56,0.98-3.53,0L46.71,18.03c-0.98-0.98-2.56-0.98-3.53,0l-7.96,7.96
				c-0.98,0.98-0.98,2.56,0,3.53L64.4,58.71c1.95,1.95,5.12,1.95,7.07,0l29.19-29.19c0.98-0.98,0.98-2.56,0-3.53l-7.96-7.96
				C91.72,17.05,90.14,17.05,89.16,18.03z"/>
			<path class="st2" d="M100.66,117.95l-7.96-7.96c-0.98-0.98-2.56-0.98-3.53,0L69.7,129.45c-0.98,0.98-2.56,0.98-3.53,0
				l-19.46-19.46c-0.98-0.98-2.56-0.98-3.53,0l-7.96,7.96c-0.98,0.98-0.98,2.56,0,3.53l21.22,21.22l0,0l7.96,7.96
				c1.95,1.95,5.12,1.95,7.07,0l7.96-7.96l0,0l21.22-21.22C101.63,120.51,101.63,118.93,100.66,117.95z"/>
			<path class="st2" d="M20.19,41.02l-7.96,7.96c-0.98,0.98-0.98,2.56,0,3.53l19.46,19.46c0.98,0.98,0.98,2.56,0,3.53L12.22,94.96
				c-0.98,0.98-0.98,2.56,0,3.53l7.96,7.96c0.98,0.98,2.56,0.98,3.53,0l29.19-29.19c1.95-1.95,1.95-5.12,0-7.07L23.72,41.02
				C22.74,40.04,21.16,40.04,20.19,41.02z"/>
			<path class="st2" d="M123.65,48.98l-7.96-7.96c-0.98-0.98-2.56-0.98-3.53,0L82.97,70.2c-1.95,1.95-1.95,5.12,0,7.07l29.19,29.19
				c0.98,0.98,2.56,0.98,3.53,0l7.96-7.96c0.98-0.98,0.98-2.56,0-3.53l-19.46-19.46c-0.98-0.98-0.98-2.56,0-3.53l19.46-19.46
				C124.62,51.54,124.62,49.96,123.65,48.98z"/>
		</g>
		<g>
			<g>
				<path class="st2" d="M214.68,117.73c-1.61,0.57-3.53,1.14-5.76,1.71c-2.23,0.57-4.6,1.11-7.11,1.63
					c-2.51,0.52-5.09,0.92-7.75,1.21c-2.65,0.28-5.26,0.43-7.82,0.43c-4.83,0-9.48-0.38-13.93-1.14c-4.45-0.76-8.36-2.3-11.73-4.62
					c-3.36-2.32-6.04-5.69-8.03-10.09c-1.99-4.41-2.99-10.3-2.99-17.7v-41.5c2.08-0.47,4.14-0.8,6.18-0.99
					c2.04-0.19,4-0.28,5.9-0.28c1.8,0,3.74,0.1,5.83,0.28c2.08,0.19,4.12,0.52,6.11,0.99v39.51c0,5.68,0.95,9.57,2.84,11.65
					c1.89,2.08,4.78,3.13,8.67,3.13c1.61,0,2.84-0.05,3.7-0.14c0.85-0.09,1.47-0.19,1.85-0.28V47.66c2.08-0.47,4.14-0.8,6.18-0.99
					c2.04-0.19,4-0.28,5.9-0.28c1.8,0,3.74,0.1,5.83,0.28c2.08,0.19,4.12,0.52,6.11,0.99V117.73z"/>
				<path class="st2" d="M234.01,67.7c-0.48-1.89-0.78-3.67-0.92-5.33c-0.14-1.66-0.21-3.24-0.21-4.76c0-1.51,0.07-3.08,0.21-4.69
					c0.14-1.61,0.45-3.36,0.92-5.26h38.23v45.2c0,5.4-0.78,10.02-2.34,13.86s-3.74,6.94-6.54,9.31c-2.8,2.37-6.06,4.1-9.81,5.19
					c-3.74,1.09-7.79,1.63-12.15,1.63c-1.42,0-3.44-0.17-6.04-0.5c-2.61-0.33-5.33-0.97-8.17-1.92c-0.1-0.76-0.17-1.49-0.21-2.2
					c-0.05-0.71-0.07-1.44-0.07-2.2c0-2.46,0.24-4.93,0.71-7.39c0.47-2.46,1.14-5.02,1.99-7.68c0.38,0.1,0.95,0.21,1.71,0.36
					c0.76,0.14,1.59,0.26,2.49,0.35c0.9,0.1,1.75,0.19,2.56,0.28c0.8,0.09,1.44,0.14,1.92,0.14c1.04,0,2.15-0.07,3.34-0.21
					c1.18-0.14,2.27-0.57,3.27-1.28c0.99-0.71,1.8-1.78,2.42-3.2c0.61-1.42,0.92-3.41,0.92-5.97V67.7H234.01z"/>
				<path class="st2" d="M283.47,84.47c0-5.69,0.8-10.89,2.42-15.63c1.61-4.74,3.98-8.79,7.11-12.15c3.13-3.36,6.96-5.99,11.51-7.89
					c4.55-1.89,9.76-2.84,15.63-2.84c1.99,0,3.88,0.05,5.68,0.14c1.8,0.09,3.58,0.28,5.33,0.57c1.75,0.28,3.55,0.71,5.4,1.28
					c1.85,0.57,3.91,1.28,6.18,2.13c0.19,3.22-0.1,6.42-0.85,9.59c-0.76,3.18-1.94,6.28-3.55,9.31c-1.61-0.57-3.06-1.02-4.33-1.35
					c-1.28-0.33-2.49-0.59-3.62-0.78c-1.14-0.19-2.25-0.31-3.34-0.36c-1.09-0.05-2.25-0.07-3.48-0.07c-4.55,0-8.31,1.35-11.3,4.05
					c-2.99,2.7-4.48,7.37-4.48,14c0,3.51,0.45,6.42,1.35,8.74c0.9,2.32,2.08,4.15,3.55,5.47c1.47,1.33,3.17,2.27,5.12,2.84
					c1.94,0.57,4,0.85,6.18,0.85c2.75,0,5.14-0.24,7.18-0.71c2.04-0.47,4.43-1.23,7.18-2.27c1.61,2.56,2.89,5.43,3.84,8.6
					c0.95,3.18,1.42,6.8,1.42,10.87c-4.36,1.71-8.34,2.79-11.94,3.27c-3.6,0.47-7.2,0.71-10.8,0.71c-6.06,0-11.42-0.9-16.06-2.7
					c-4.64-1.8-8.55-4.38-11.73-7.75c-3.18-3.36-5.57-7.39-7.18-12.08C284.28,95.63,283.47,90.35,283.47,84.47z"/>
				<path class="st2" d="M398.74,47.66c0.76-0.19,2.32-0.38,4.69-0.57c2.37-0.19,4.78-0.28,7.25-0.28c3.13,0,6.04,0.09,8.74,0.28
					c2.7,0.19,4.57,0.38,5.61,0.57l-27.86,73.2c-1.99,0.47-4,0.78-6.04,0.92c-2.04,0.14-4,0.21-5.9,0.21c-1.9,0-3.84-0.07-5.83-0.21
					c-1.99-0.14-3.79-0.45-5.4-0.92l-27.29-73.2c1.04-0.19,2.91-0.38,5.61-0.57c2.7-0.19,5.61-0.28,8.74-0.28
					c2.46,0,4.93,0.09,7.39,0.28c2.46,0.19,4.07,0.38,4.83,0.57l12.93,44.06c2.18-7.29,4.29-14.69,6.32-22.17
					C394.59,62.06,396.65,54.77,398.74,47.66z"/>
				<g>
					<path class="st2" d="M415.19,117.02c0-3.1,2.36-5.12,4.95-5.12c2.58,0,4.95,2.02,4.95,5.12c0,3.03-2.37,5.05-4.95,5.05
						C417.55,122.07,415.19,120.05,415.19,117.02z M420.14,120.45c1.8,0,3.3-1.32,3.3-3.43c0-2.18-1.51-3.5-3.3-3.5
						c-1.81,0-3.32,1.32-3.32,3.5C416.82,119.13,418.33,120.45,420.14,120.45z M418.45,114.58h1.91c1.11,0,1.66,0.66,1.66,1.63
						c0,0.7-0.25,1.13-0.93,1.55l1.12,1.56h-1.23l-0.99-1.52h-0.39v1.52h-1.14V114.58z M420.2,116.8c0.35,0,0.66-0.07,0.66-0.59
						c0-0.5-0.31-0.63-0.66-0.63h-0.64v1.21H420.2z"/>
				</g>
			</g>
			<g>
				<g>
					<path class="st2" d="M442.86,59.28V46.9h2.34v12.36c0,3.42,2.09,4.97,4.59,4.97c2.47,0,4.56-1.55,4.56-4.97V46.9h2.34v12.39
						c0,4.62-3.02,7.17-6.9,7.17C445.87,66.45,442.86,63.9,442.86,59.28z"/>
					<path class="st2" d="M460.26,52.06h2.28v2.31c0.73-1.36,2.28-2.58,4.73-2.58c2.96,0,5.51,1.85,5.51,6.09v8.31h-2.28V58.2
						c0-2.85-1.68-4.32-3.94-4.32s-4.02,1.47-4.02,4.32v7.99h-2.28V52.06z"/>
					<path class="st2" d="M476.04,46.9h2.28v2.12h-2.28V46.9z M476.04,52.06h2.28v14.13h-2.28V52.06z"/>
					<path class="st2" d="M480.32,52.06h2.36l4.7,11.3l4.7-11.3h2.36l-6,14.13h-2.12L480.32,52.06z"/>
					<path class="st2" d="M495.12,59.12c0-4.75,3.48-7.34,7.04-7.34c3.59,0,7.33,2.58,6.76,8.18h-11.63
						c0.35,2.96,2.61,4.54,5.33,4.54c1.66,0,3.18-0.6,4.21-1.71l1.14,1.17c-1.28,1.58-3.31,2.5-5.6,2.5
						C498.56,66.45,495.12,63.82,495.12,59.12z M506.91,58.22c-0.16-2.91-2.36-4.45-4.73-4.45c-2.34,0-4.54,1.49-4.89,4.45H506.91z"
						/>
					<path class="st2" d="M511.4,52.06h2.28v3.5c0.52-2.04,1.93-3.78,4.54-3.78c0.33,0,0.6,0.03,0.82,0.11v2.15
						c-0.25-0.06-0.46-0.08-0.79-0.08c-2.64,0-4.57,1.98-4.57,5.14v7.09h-2.28V52.06z"/>
					<path class="st2" d="M520.38,62.63l1.9-0.52c0.38,1.49,1.49,2.44,3.07,2.44c1.33,0,2.66-0.65,2.66-2.2
						c0-1.17-0.82-1.77-2.45-2.44l-1.28-0.49c-2.34-0.95-3.31-2.34-3.31-3.94c0-2.23,1.93-3.7,4.37-3.7c2.25,0,3.94,1.25,4.43,3.15
						l-1.82,0.54c-0.43-1.17-1.28-1.82-2.53-1.82c-1.22,0-2.2,0.65-2.2,1.85c0,0.9,0.57,1.6,2.04,2.2l1.14,0.46
						c2.23,0.87,3.86,1.85,3.86,4.18c0,2.8-2.36,4.1-4.92,4.1C522.71,66.45,520.81,65.04,520.38,62.63z"/>
					<path class="st2" d="M532.79,46.9h2.28v2.12h-2.28V46.9z M532.79,52.06h2.28v14.13h-2.28V52.06z"/>
					<path class="st2" d="M549.92,66.18v-2.66h-0.08c-0.68,1.49-2.66,2.93-5.3,2.93c-3.42,0-6.93-2.5-6.93-7.33
						c0-4.84,3.5-7.34,6.93-7.34c2.64,0,4.62,1.44,5.3,2.93h0.08V46.9h2.28v19.29H549.92z M544.93,64.36c2.55,0,5.08-1.77,5.08-5.24
						s-2.53-5.24-5.08-5.24c-2.5,0-5.02,1.74-5.02,5.24S542.43,64.36,544.93,64.36z"/>
					<path class="st2" d="M554.81,59.12c0-4.84,3.5-7.34,6.93-7.34c2.64,0,4.62,1.44,5.3,2.93h0.08v-2.66h2.28v14.13h-2.28v-2.66
						h-0.08c-0.68,1.49-2.66,2.93-5.3,2.93C558.31,66.45,554.81,63.96,554.81,59.12z M562.12,64.36c2.55,0,5.08-1.77,5.08-5.24
						s-2.53-5.24-5.08-5.24c-2.5,0-5.03,1.74-5.03,5.24S559.62,64.36,562.12,64.36z"/>
					<path class="st2" d="M584.3,66.18v-2.66h-0.08c-0.68,1.49-2.66,2.93-5.3,2.93c-3.42,0-6.93-2.5-6.93-7.33
						c0-4.84,3.5-7.34,6.93-7.34c2.64,0,4.62,1.44,5.3,2.93h0.08V46.9h2.28v19.29H584.3z M579.31,64.36c2.55,0,5.08-1.77,5.08-5.24
						s-2.53-5.24-5.08-5.24c-2.5,0-5.02,1.74-5.02,5.24S576.81,64.36,579.31,64.36z"/>
					<path class="st2" d="M441.82,91.34l2.39-2.42c0.57,0.82,1.55,1.74,3.04,1.74c0.98,0,2.99-0.38,2.99-3.56V74.68h3.72v12.9
						c0,4.94-3.4,6.66-6.52,6.66C444.81,94.24,442.89,93.08,441.82,91.34z"/>
					<path class="st2" d="M456.32,86.91c0-4.78,3.75-7.34,7.44-7.34c3.67,0,7.44,2.55,7.44,7.34c0,4.78-3.78,7.33-7.44,7.33
						C460.07,94.24,456.32,91.69,456.32,86.91z M463.76,90.96c2.04,0,3.83-1.52,3.83-4.05s-1.79-4.05-3.83-4.05
						c-2.04,0-3.86,1.52-3.86,4.05S461.73,90.96,463.76,90.96z"/>
					<path class="st2" d="M472.39,90.28l2.91-0.79c0.27,0.93,0.95,1.88,2.34,1.88c0.92,0,1.82-0.46,1.82-1.47
						c0-0.68-0.44-1.17-1.55-1.58l-1.74-0.65c-2.34-0.84-3.32-2.34-3.32-4.05c0-2.53,2.23-4.05,4.89-4.05
						c2.55,0,4.43,1.44,4.89,3.61l-2.85,0.73c-0.38-1.14-1.11-1.49-1.88-1.49c-0.95,0-1.52,0.54-1.52,1.22
						c0,0.6,0.35,1.11,1.47,1.49l1.58,0.6c1.74,0.62,3.64,1.66,3.64,4.16c0,2.82-2.42,4.35-5.38,4.35
						C474.89,94.24,472.83,92.89,472.39,90.28z"/>
					<path class="st2" d="M484.42,86.91c0-4.75,3.53-7.34,7.14-7.34c3.59,0,7.66,2.53,6.87,8.75h-10.57
						c0.51,1.93,2.2,2.93,4.32,2.93c1.39,0,2.61-0.38,3.64-1.28l1.66,1.77c-1.17,1.47-3.21,2.5-5.7,2.5
						C487.9,94.24,484.42,91.61,484.42,86.91z M495.21,85.66c-0.22-2.01-1.9-3.02-3.61-3.02c-1.68,0-3.31,0.98-3.78,3.02H495.21z
						 M492.98,73.87h2.93l-2.8,4.26h-2.85L492.98,73.87z"/>
					<path class="st2" d="M505.93,84.33c0-6,4.54-9.91,9.94-9.91c2.63,0,5.79,0.92,7.82,4.18l-2.72,1.87
						c-1.25-1.79-3.12-2.53-5-2.53c-3.42,0-6.25,2.47-6.25,6.38c0,3.94,2.85,6.38,6.27,6.38c1.93,0,3.72-0.73,4.97-2.53l2.72,1.87
						c-2.04,3.26-5.19,4.18-7.82,4.18C510.44,94.24,505.93,90.33,505.93,84.33z"/>
					<path class="st2" d="M525.11,86.91c0-4.75,3.53-7.34,7.14-7.34c3.59,0,7.66,2.53,6.87,8.75h-10.57
						c0.51,1.93,2.2,2.93,4.32,2.93c1.39,0,2.61-0.38,3.64-1.28l1.66,1.77c-1.17,1.47-3.21,2.5-5.7,2.5
						C528.59,94.24,525.11,91.61,525.11,86.91z M535.89,85.66c-0.22-2.01-1.9-3.02-3.61-3.02c-1.68,0-3.31,0.98-3.78,3.02H535.89z"
						/>
					<path class="st2" d="M540.6,86.91c0-4.78,3.72-7.34,7.44-7.34c2.5,0,4.73,1.17,6.09,3.48l-2.66,1.71
						c-0.73-1.11-1.93-1.9-3.4-1.9c-2.04,0-3.88,1.52-3.88,4.05s1.85,4.05,3.88,4.05c1.47,0,2.66-0.79,3.4-1.9l2.66,1.71
						c-1.36,2.28-3.59,3.48-6.09,3.48C544.32,94.24,540.6,91.69,540.6,86.91z"/>
					<path class="st2" d="M556.15,74.68h3.64v3.21h-3.64V74.68z M556.15,79.85h3.64v14.13h-3.64V79.85z"/>
					<path class="st2" d="M562.67,74.68h3.64v19.29h-3.64V74.68z"/>
					<path class="st2" d="M569.19,74.68h3.64v3.21h-3.64V74.68z M569.19,79.85h3.64v14.13h-3.64V79.85z"/>
					<path class="st2" d="M575.01,86.91c0-4.78,3.75-7.34,7.44-7.34c3.67,0,7.44,2.55,7.44,7.34c0,4.78-3.78,7.33-7.44,7.33
						C578.76,94.24,575.01,91.69,575.01,86.91z M582.46,90.96c2.04,0,3.83-1.52,3.83-4.05s-1.79-4.05-3.83-4.05
						c-2.04,0-3.86,1.52-3.86,4.05S580.42,90.96,582.46,90.96z"/>
					<path class="st2" d="M453.34,121.76v-1.9h-0.08c-0.35,0.79-1.98,2.17-4.51,2.17c-3.29,0-6.79-2.44-6.79-7.33
						c0-4.89,3.5-7.34,6.79-7.34c2.53,0,4.15,1.38,4.51,2.17h0.08v-7.06h3.64v19.29H453.34z M449.49,118.77
						c2.04,0,3.94-1.41,3.94-4.07c0-2.66-1.9-4.08-3.94-4.08s-3.94,1.44-3.94,4.08C445.55,117.33,447.45,118.77,449.49,118.77z"/>
					<path class="st2" d="M459.18,114.7c0-4.75,3.53-7.34,7.14-7.34c3.59,0,7.66,2.53,6.87,8.75h-10.57
						c0.51,1.93,2.2,2.93,4.32,2.93c1.39,0,2.61-0.38,3.64-1.28l1.66,1.77c-1.17,1.47-3.21,2.5-5.7,2.5
						C462.65,122.03,459.18,119.4,459.18,114.7z M469.96,113.45c-0.22-2.01-1.9-3.02-3.61-3.02c-1.68,0-3.31,0.98-3.78,3.02H469.96z
						"/>
					<path class="st2" d="M475.42,102.47h3.64v19.29h-3.64V102.47z"/>
					<path class="st2" d="M486.47,102.47h4.02l5.38,14.64l5.38-14.64h4.02l-7.44,19.29h-3.94L486.47,102.47z"/>
					<path class="st2" d="M503.88,114.7c0-4.89,3.5-7.34,6.79-7.34c2.53,0,4.15,1.38,4.51,2.17h0.08v-1.9h3.64v14.13h-3.64v-1.9
						h-0.08c-0.35,0.79-1.98,2.17-4.51,2.17C507.38,122.03,503.88,119.59,503.88,114.7z M511.4,118.77c2.04,0,3.94-1.41,3.94-4.07
						c0-2.66-1.9-4.08-3.94-4.08c-2.04,0-3.94,1.44-3.94,4.08C507.46,117.33,509.36,118.77,511.4,118.77z"/>
					<path class="st2" d="M521.81,102.47h3.64v19.29h-3.64V102.47z"/>
					<path class="st2" d="M528.33,102.47h3.64v19.29h-3.64V102.47z"/>
					<path class="st2" d="M534.16,114.7c0-4.75,3.53-7.34,7.14-7.34c3.59,0,7.66,2.53,6.87,8.75h-10.57
						c0.51,1.93,2.2,2.93,4.32,2.93c1.39,0,2.61-0.38,3.64-1.28l1.66,1.77c-1.17,1.47-3.21,2.5-5.7,2.5
						C537.64,122.03,534.16,119.4,534.16,114.7z M544.94,113.45c-0.22-2.01-1.9-3.02-3.61-3.02c-1.68,0-3.31,0.98-3.78,3.02H544.94z
						"/>
				</g>
			</g>
		</g>
	</g>
</g>
<g id="S-H">
</g>
</svg>
